<svg xmlns="http://www.w3.org/2000/svg" viewBox="0 0 110 92"><path fill="#10B981" d="M61.57,47,95.43,80.9l-3.35,3.35c-8.16-9.44-18.92-14.64-30.39-14.64S39.47,74.78,31.31,84.23l-3.38-3.38.41-.46a54,54,0,0,0,4.79-4.9ZM19.91,12.18c9.45,8.19,14.63,19,14.63,30.39v0c0,11.46-5.18,22.2-14.63,30.36l3.36,3.35L28.56,71l.05,0L57.15,42.45,28.66,14a47,47,0,0,1-4.88-4.79c-.05,0-.05,0-.05-.05l-.44-.36Zm42.43,2.49C50.87,14.67,40.11,9.47,32,0L28.6,3.38l5.2,5.17s.05,0,.1.1L62.46,37.24,90.93,8.77a49.64,49.64,0,0,1,4.76-4.86l0,0,.05-.05.39-.46L92.77,0C84.56,9.47,73.8,14.67,62.34,14.67ZM66.93,41.8,95.37,70.27a52.84,52.84,0,0,1,4.91,4.79l.46.41,3.38-3.38C94.67,63.91,89.5,53.17,89.5,41.71v0c0-11.46,5.17-22.2,14.64-30.36L100.79,8Z"/></svg>
