<svg xmlns="http://www.w3.org/2000/svg" viewBox="0 0 116.64 118.92"><defs><style>.cls-1{fill:#FFFFFF;}.cls-2{fill:#E5E7EB;}.cls-3{fill:#9CA3AF;}.cls-4{fill:#10B981;}</style></defs><g id="Layer_2" data-name="Layer 2"><g id="Layer_1-2" data-name="Layer 1"><path class="cls-1" d="M7.48,104.59A6.24,6.24,0,0,1,5,104.08a6.48,6.48,0,0,1-2-1.43,7,7,0,0,1-1.39-2.12A6.73,6.73,0,0,1,1,98a6.63,6.63,0,0,1,.49-2.56,6.5,6.5,0,0,1,1.37-2.12A6.74,6.74,0,0,1,5,91.84a6.09,6.09,0,0,1,2.53-.52,6.29,6.29,0,0,1,2.17.35,6.16,6.16,0,0,1,1.89,1.11.42.42,0,0,1,.17.27.48.48,0,0,1-.24.51.33.33,0,0,1-.17.2.49.49,0,0,1-.3,0,.67.67,0,0,1-.34-.14,4.26,4.26,0,0,0-1.41-.84,5.31,5.31,0,0,0-1.77-.27,4.76,4.76,0,0,0-2,.43,5.45,5.45,0,0,0-1.65,1.17,5.6,5.6,0,0,0-1.12,1.73A5.34,5.34,0,0,0,2.29,98a5.42,5.42,0,0,0,.4,2.1A5.41,5.41,0,0,0,5.46,103a5.07,5.07,0,0,0,3.74.12,6,6,0,0,0,1.54-.86.49.49,0,0,1,.42-.13.66.66,0,0,1,.39.19.62.62,0,0,1,.17.44,1,1,0,0,1,0,.24,1.13,1.13,0,0,1-.14.22,4.92,4.92,0,0,1-1.89,1.1A7.17,7.17,0,0,1,7.48,104.59Z" transform="translate(-1.03)"/><path class="cls-1" d="M14.9,104.43a.59.59,0,0,1-.63-.63V96a.65.65,0,0,1,1.09-.46.58.58,0,0,1,.17.46v7.81a.58.58,0,0,1-.17.46A.62.62,0,0,1,14.9,104.43Zm-.1-5.59A3.84,3.84,0,0,1,15.34,97a3.62,3.62,0,0,1,1.28-1.27,3.35,3.35,0,0,1,1.75-.47,2.62,2.62,0,0,1,1.17.22.52.52,0,0,1,.32.63.5.5,0,0,1-.23.33.65.65,0,0,1-.38.07l-.5,0a3.8,3.8,0,0,0-1.65.19A2.67,2.67,0,0,0,16,97.5a2.18,2.18,0,0,0-.42,1.34Z" transform="translate(-1.03)"/><path class="cls-1" d="M25.26,104.15a.58.58,0,0,1-.46,0,.64.64,0,0,1-.35-.32l-3.7-7.66a.56.56,0,0,1,0-.47.59.59,0,0,1,.33-.33.63.63,0,0,1,.46,0,.59.59,0,0,1,.34.32l3.63,7.66a.74.74,0,0,1,.08.47A.51.51,0,0,1,25.26,104.15Zm-1.84,4.22a.89.89,0,0,1-.3-.06.53.53,0,0,1-.31-.8l5.35-11.8a.55.55,0,0,1,.8-.3.52.52,0,0,1,.31.78L23.9,108A.52.52,0,0,1,23.42,108.37Z" transform="translate(-1.03)"/><path class="cls-1" d="M31.59,108.31a.62.62,0,0,1-.65-.65V99.84a4.69,4.69,0,0,1,.63-2.33,4.35,4.35,0,0,1,1.64-1.63,4.54,4.54,0,0,1,2.33-.6,4.6,4.6,0,0,1,2.37.61,4.55,4.55,0,0,1,1.65,1.64,4.69,4.69,0,0,1,.6,2.37,4.75,4.75,0,0,1-.59,2.36,4.44,4.44,0,0,1-1.6,1.65,4.61,4.61,0,0,1-4.3.13,4.11,4.11,0,0,1-1.45-1.25v4.87a.64.64,0,0,1-.17.47A.62.62,0,0,1,31.59,108.31Zm3.95-5a3.32,3.32,0,0,0,1.72-.45,3.15,3.15,0,0,0,1.2-1.23,3.78,3.78,0,0,0,0-3.54,3.38,3.38,0,0,0-4.63-1.23,3.13,3.13,0,0,0-1.19,1.23,3.78,3.78,0,0,0,0,3.54,3.06,3.06,0,0,0,1.19,1.23A3.31,3.31,0,0,0,35.54,103.35Z" transform="translate(-1.03)"/><path class="cls-1" d="M42.08,96.8a.59.59,0,0,1-.41-.15.54.54,0,0,1-.17-.39.55.55,0,0,1,.17-.41.6.6,0,0,1,.41-.16h4.23a.58.58,0,0,1,.41.16.55.55,0,0,1,.17.41.54.54,0,0,1-.17.39.58.58,0,0,1-.41.15Zm4.13,7.63a3,3,0,0,1-2.65-1.55,3.3,3.3,0,0,1-.4-1.65v-8.1a.68.68,0,0,1,.17-.47.68.68,0,0,1,.92,0,.61.61,0,0,1,.19.47v8.1a1.94,1.94,0,0,0,.49,1.38,1.68,1.68,0,0,0,1.28.54h.45a.54.54,0,0,1,.43.19.65.65,0,0,1,.16.46.59.59,0,0,1-.19.46.78.78,0,0,1-.5.17Z" transform="translate(-1.03)"/><path class="cls-2" d="M54.58,106.64a1,1,0,0,1-1-1V92.14a1,1,0,0,1,1-1h4a5.23,5.23,0,0,1,2.65.65A4.7,4.7,0,0,1,63,93.58a5.45,5.45,0,0,1,.65,2.68A5.1,5.1,0,0,1,63,98.84a4.51,4.51,0,0,1-1.8,1.77,5.33,5.33,0,0,1-2.65.64H55.61v4.36a1,1,0,0,1-.29.73A1,1,0,0,1,54.58,106.64Zm1-7.3h2.94a3.19,3.19,0,0,0,1.62-.4,2.92,2.92,0,0,0,1.09-1.09,3.23,3.23,0,0,0,.4-1.59,3.48,3.48,0,0,0-.4-1.68,3,3,0,0,0-1.09-1.15A3.1,3.1,0,0,0,58.55,93H55.61Z" transform="translate(-1.03)"/><path class="cls-2" d="M73.11,106.84a8.52,8.52,0,0,1-3.2-.59,7.14,7.14,0,0,1-2.49-1.65,7.5,7.5,0,0,1-1.63-2.53,9.3,9.3,0,0,1,0-6.41,7.55,7.55,0,0,1,1.63-2.52,7.42,7.42,0,0,1,2.49-1.65,9.12,9.12,0,0,1,6.4,0,7.63,7.63,0,0,1,2.49,1.65,7.26,7.26,0,0,1,1.63,2.52,9.15,9.15,0,0,1,0,6.41,7.21,7.21,0,0,1-1.63,2.53,7.32,7.32,0,0,1-2.49,1.65A8.44,8.44,0,0,1,73.11,106.84Zm0-1.87a6,6,0,0,0,2.38-.47,5.73,5.73,0,0,0,1.88-1.29,5.66,5.66,0,0,0,1.22-1.94,6.94,6.94,0,0,0,0-4.81,5.56,5.56,0,0,0-1.22-1.94,5.73,5.73,0,0,0-1.88-1.29,6.49,6.49,0,0,0-4.75,0,5.49,5.49,0,0,0-1.87,1.29,5.89,5.89,0,0,0-1.23,1.94,6.94,6.94,0,0,0,0,4.81,6,6,0,0,0,1.23,1.94,5.49,5.49,0,0,0,1.87,1.29A5.93,5.93,0,0,0,73.11,105Z" transform="translate(-1.03)"/><path class="cls-2" d="M85.29,106.64a1,1,0,0,1-1-1V92.14a1,1,0,0,1,1-1,1,1,0,0,1,.74.28,1.05,1.05,0,0,1,.29.75v13.47a1,1,0,0,1-.29.73A1,1,0,0,1,85.29,106.64Z" transform="translate(-1.03)"/><path class="cls-2" d="M91.31,106.64a1,1,0,0,1-.72-.3,1,1,0,0,1-.29-.73V92.14a1,1,0,0,1,.29-.75,1,1,0,0,1,.72-.28,1,1,0,0,1,.8.37L100.78,103V92.14a1,1,0,0,1,1-1,1,1,0,0,1,.74.28,1,1,0,0,1,.28.75v13.47a1,1,0,0,1-.28.73,1,1,0,0,1-.74.3,1.14,1.14,0,0,1-.42-.09.8.8,0,0,1-.37-.27L92.35,94.75v10.86a1,1,0,0,1-.29.73A1,1,0,0,1,91.31,106.64Z" transform="translate(-1.03)"/><path class="cls-2" d="M106.07,93a1,1,0,0,1-.69-1.65,1,1,0,0,1,.69-.26h10.64a1,1,0,0,1,.69.26,1,1,0,0,1-.69,1.65Zm5.33,13.62a1,1,0,0,1-1-1V91.11h2.07v14.5a1,1,0,0,1-.3.73A1,1,0,0,1,111.4,106.64Z" transform="translate(-1.03)"/><g id="color_index_g" data-name="color index g"><path class="cls-4" d="M61.57,47,95.43,80.9l-3.35,3.35c-8.16-9.44-18.92-14.64-30.39-14.64S39.47,74.78,31.31,84.23l-3.38-3.38.41-.46a54,54,0,0,0,4.79-4.9ZM19.91,12.18c9.45,8.19,14.63,19,14.63,30.39v0c0,11.46-5.18,22.2-14.63,30.36l3.36,3.35L28.56,71l.05,0L57.15,42.45,28.66,14a47,47,0,0,1-4.88-4.79c-.05,0-.05,0-.05-.05l-.44-.36Zm42.43,2.49C50.87,14.67,40.11,9.47,32,0L28.6,3.38l5.2,5.17s.05,0,.1.1L62.46,37.24,90.93,8.77a49.64,49.64,0,0,1,4.76-4.86l0,0,.05-.05.39-.46L92.77,0C84.56,9.47,73.8,14.67,62.34,14.67ZM66.93,41.8,95.37,70.27a52.84,52.84,0,0,1,4.91,4.79l.46.41,3.38-3.38C94.67,63.91,89.5,53.17,89.5,41.71v0c0-11.46,5.17-22.2,14.64-30.36L100.79,8Z" transform="translate(-1.03)"/></g></g></g></svg>
