<?xml version="1.0" encoding="UTF-8" standalone="no"?>
<svg
   viewBox="0 0 138.99419 29.599612"
   version="1.1"
   id="svg26"
   width="138.99419"
   height="29.599611"
   xmlns="http://www.w3.org/2000/svg"
   xmlns:svg="http://www.w3.org/2000/svg">
  <defs id="defs1">
    <style id="style1">.cls-1{fill:#FFFFFF;}.cls-2{fill:#E5E7EB;}.cls-3{fill:#9CA3AF;}.cls-4{fill:#10B981;}</style>
  </defs>
  <g id="Layer_2" data-name="Layer 2" transform="translate(22.382135,-89.320388)">
    <g id="Layer_1-2" data-name="Layer 1">
      <path class="cls-1" d="M 7.48,104.59 A 6.24,6.24 0 0 1 5,104.08 6.48,6.48 0 0 1 3,102.65 7,7 0 0 1 1.61,100.53 6.73,6.73 0 0 1 1,98 6.63,6.63 0 0 1 1.49,95.44 6.5,6.5 0 0 1 2.86,93.32 6.74,6.74 0 0 1 5,91.84 a 6.09,6.09 0 0 1 2.53,-0.52 6.29,6.29 0 0 1 2.17,0.35 6.16,6.16 0 0 1 1.89,1.11 0.42,0.42 0 0 1 0.17,0.27 0.48,0.48 0 0 1 -0.24,0.51 0.33,0.33 0 0 1 -0.17,0.2 0.49,0.49 0 0 1 -0.3,0 0.67,0.67 0 0 1 -0.34,-0.14 4.26,4.26 0 0 0 -1.41,-0.84 5.31,5.31 0 0 0 -1.77,-0.27 4.76,4.76 0 0 0 -2,0.43 5.45,5.45 0 0 0 -1.65,1.17 5.6,5.6 0 0 0 -1.12,1.73 5.34,5.34 0 0 0 -0.47,2.16 5.42,5.42 0 0 0 0.4,2.1 5.41,5.41 0 0 0 2.77,2.9 5.07,5.07 0 0 0 3.74,0.12 6,6 0 0 0 1.54,-0.86 0.49,0.49 0 0 1 0.42,-0.13 0.66,0.66 0 0 1 0.39,0.19 0.62,0.62 0 0 1 0.17,0.44 1,1 0 0 1 0,0.24 1.13,1.13 0 0 1 -0.14,0.22 4.92,4.92 0 0 1 -1.89,1.1 7.17,7.17 0 0 1 -2.21,0.27 z" transform="translate(-1.03)" id="path1" />
      <path class="cls-1" d="M 14.9,104.43 A 0.59,0.59 0 0 1 14.27,103.8 V 96 a 0.65,0.65 0 0 1 1.09,-0.46 0.58,0.58 0 0 1 0.17,0.46 v 7.81 a 0.58,0.58 0 0 1 -0.17,0.46 0.62,0.62 0 0 1 -0.46,0.16 z m -0.1,-5.59 a 3.84,3.84 0 0 1 0.54,-1.84 3.62,3.62 0 0 1 1.28,-1.27 3.35,3.35 0 0 1 1.75,-0.47 2.62,2.62 0 0 1 1.17,0.22 0.52,0.52 0 0 1 0.32,0.63 0.5,0.5 0 0 1 -0.23,0.33 0.65,0.65 0 0 1 -0.38,0.07 h -0.5 A 3.8,3.8 0 0 0 17.1,96.7 2.67,2.67 0 0 0 16,97.5 2.18,2.18 0 0 0 15.58,98.84 Z" transform="translate(-1.03)" id="path2" />
      <path class="cls-1" d="m 25.26,104.15 a 0.58,0.58 0 0 1 -0.46,0 0.64,0.64 0 0 1 -0.35,-0.32 l -3.7,-7.66 a 0.56,0.56 0 0 1 0,-0.47 0.59,0.59 0 0 1 0.33,-0.33 0.63,0.63 0 0 1 0.46,0 0.59,0.59 0 0 1 0.34,0.32 l 3.63,7.66 a 0.74,0.74 0 0 1 0.08,0.47 0.51,0.51 0 0 1 -0.33,0.33 z m -1.84,4.22 a 0.89,0.89 0 0 1 -0.3,-0.06 0.53,0.53 0 0 1 -0.31,-0.8 l 5.35,-11.8 a 0.55,0.55 0 0 1 0.8,-0.3 0.52,0.52 0 0 1 0.31,0.78 L 23.9,108 a 0.52,0.52 0 0 1 -0.48,0.37 z" transform="translate(-1.03)" id="path3" />
      <path class="cls-1" d="m 31.59,108.31 a 0.62,0.62 0 0 1 -0.65,-0.65 v -7.82 a 4.69,4.69 0 0 1 0.63,-2.33 4.35,4.35 0 0 1 1.64,-1.63 4.54,4.54 0 0 1 2.33,-0.6 4.6,4.6 0 0 1 2.37,0.61 4.55,4.55 0 0 1 1.65,1.64 4.69,4.69 0 0 1 0.6,2.37 4.75,4.75 0 0 1 -0.59,2.36 4.44,4.44 0 0 1 -1.6,1.65 4.61,4.61 0 0 1 -4.3,0.13 4.11,4.11 0 0 1 -1.45,-1.25 v 4.87 a 0.64,0.64 0 0 1 -0.17,0.47 0.62,0.62 0 0 1 -0.46,0.18 z m 3.95,-5 a 3.32,3.32 0 0 0 1.72,-0.45 3.15,3.15 0 0 0 1.2,-1.23 3.78,3.78 0 0 0 0,-3.54 3.38,3.38 0 0 0 -4.63,-1.23 3.13,3.13 0 0 0 -1.19,1.23 3.78,3.78 0 0 0 0,3.54 3.06,3.06 0 0 0 1.19,1.23 3.31,3.31 0 0 0 1.71,0.49 z" transform="translate(-1.03)" id="path4" />
      <path class="cls-1" d="m 42.08,96.8 a 0.59,0.59 0 0 1 -0.41,-0.15 0.54,0.54 0 0 1 -0.17,-0.39 0.55,0.55 0 0 1 0.17,-0.41 0.6,0.6 0 0 1 0.41,-0.16 h 4.23 a 0.58,0.58 0 0 1 0.41,0.16 0.55,0.55 0 0 1 0.17,0.41 0.54,0.54 0 0 1 -0.17,0.39 0.58,0.58 0 0 1 -0.41,0.15 z m 4.13,7.63 a 3,3 0 0 1 -2.65,-1.55 3.3,3.3 0 0 1 -0.4,-1.65 v -8.1 a 0.68,0.68 0 0 1 0.17,-0.47 0.68,0.68 0 0 1 0.92,0 0.61,0.61 0 0 1 0.19,0.47 v 8.1 a 1.94,1.94 0 0 0 0.49,1.38 1.68,1.68 0 0 0 1.28,0.54 h 0.45 a 0.54,0.54 0 0 1 0.43,0.19 0.65,0.65 0 0 1 0.16,0.46 0.59,0.59 0 0 1 -0.19,0.46 0.78,0.78 0 0 1 -0.5,0.17 z" transform="translate(-1.03)" id="path5" />
      <path class="cls-2" d="m 54.58,106.64 a 1,1 0 0 1 -1,-1 v -13.5 a 1,1 0 0 1 1,-1 h 4 a 5.23,5.23 0 0 1 2.65,0.65 4.7,4.7 0 0 1 1.77,1.79 5.45,5.45 0 0 1 0.65,2.68 5.1,5.1 0 0 1 -0.65,2.58 4.51,4.51 0 0 1 -1.8,1.77 5.33,5.33 0 0 1 -2.65,0.64 h -2.94 v 4.36 a 1,1 0 0 1 -0.29,0.73 1,1 0 0 1 -0.74,0.3 z m 1,-7.3 h 2.94 a 3.19,3.19 0 0 0 1.62,-0.4 2.92,2.92 0 0 0 1.09,-1.09 3.23,3.23 0 0 0 0.4,-1.59 3.48,3.48 0 0 0 -0.4,-1.68 3,3 0 0 0 -1.09,-1.15 3.1,3.1 0 0 0 -1.59,-0.43 h -2.94 z" transform="translate(-1.03)" id="path6" />
      <path class="cls-2" d="m 73.11,106.84 a 8.52,8.52 0 0 1 -3.2,-0.59 7.14,7.14 0 0 1 -2.49,-1.65 7.5,7.5 0 0 1 -1.63,-2.53 9.3,9.3 0 0 1 0,-6.41 7.55,7.55 0 0 1 1.63,-2.52 7.42,7.42 0 0 1 2.49,-1.65 9.12,9.12 0 0 1 6.4,0 7.63,7.63 0 0 1 2.49,1.65 7.26,7.26 0 0 1 1.63,2.52 9.15,9.15 0 0 1 0,6.41 7.21,7.21 0 0 1 -1.63,2.53 7.32,7.32 0 0 1 -2.49,1.65 8.44,8.44 0 0 1 -3.2,0.59 z m 0,-1.87 a 6,6 0 0 0 2.38,-0.47 5.73,5.73 0 0 0 1.88,-1.29 5.66,5.66 0 0 0 1.22,-1.94 6.94,6.94 0 0 0 0,-4.81 5.56,5.56 0 0 0 -1.22,-1.94 5.73,5.73 0 0 0 -1.88,-1.29 6.49,6.49 0 0 0 -4.75,0 5.49,5.49 0 0 0 -1.87,1.29 5.89,5.89 0 0 0 -1.23,1.94 6.94,6.94 0 0 0 0,4.81 6,6 0 0 0 1.23,1.94 5.49,5.49 0 0 0 1.87,1.29 5.93,5.93 0 0 0 2.37,0.5 z" transform="translate(-1.03)" id="path7" />
      <path class="cls-2" d="m 85.29,106.64 a 1,1 0 0 1 -1,-1 v -13.5 a 1,1 0 0 1 1,-1 1,1 0 0 1 0.74,0.28 1.05,1.05 0 0 1 0.29,0.75 v 13.47 a 1,1 0 0 1 -0.29,0.73 1,1 0 0 1 -0.74,0.27 z" transform="translate(-1.03)" id="path8" />
      <path class="cls-2" d="m 91.31,106.64 a 1,1 0 0 1 -0.72,-0.3 1,1 0 0 1 -0.29,-0.73 V 92.14 a 1,1 0 0 1 0.29,-0.75 1,1 0 0 1 0.72,-0.28 1,1 0 0 1 0.8,0.37 L 100.78,103 V 92.14 a 1,1 0 0 1 1,-1 1,1 0 0 1 0.74,0.28 1,1 0 0 1 0.28,0.75 v 13.47 a 1,1 0 0 1 -0.28,0.73 1,1 0 0 1 -0.74,0.3 1.14,1.14 0 0 1 -0.42,-0.09 0.8,0.8 0 0 1 -0.37,-0.27 L 92.35,94.75 v 10.86 a 1,1 0 0 1 -0.29,0.73 1,1 0 0 1 -0.75,0.3 z" transform="translate(-1.03)" id="path9" />
      <path class="cls-2" d="m 106.07,93 a 1,1 0 0 1 -0.69,-1.65 1,1 0 0 1 0.69,-0.26 h 10.64 a 1,1 0 0 1 0.69,0.26 1,1 0 0 1 -0.69,1.65 z m 5.33,13.62 a 1,1 0 0 1 -1,-1 V 91.11 h 2.07 v 14.5 a 1,1 0 0 1 -0.3,0.73 1,1 0 0 1 -0.77,0.3 z" transform="translate(-1.03)" id="path10" />
      <path class="cls-3" d="m 18.57,117 a 0.36,0.36 0 0 1 -0.25,-0.08 0.29,0.29 0 0 1 -0.1,-0.23 v -5.62 a 0.27,0.27 0 0 1 0.1,-0.22 0.37,0.37 0 0 1 0.25,-0.09 0.36,0.36 0 0 1 0.24,0.09 0.28,0.28 0 0 1 0.11,0.22 v 5.34 h 3.48 a 0.36,0.36 0 0 1 0.24,0.09 0.24,0.24 0 0 1 0.1,0.21 0.26,0.26 0 0 1 -0.1,0.21 0.35,0.35 0 0 1 -0.24,0.08 z" transform="translate(-1.03)" id="path11" />
      <path class="cls-3" d="m 26,117.05 a 2.76,2.76 0 0 1 -1.27,-0.28 2.27,2.27 0 0 1 -0.88,-0.8 2.08,2.08 0 0 1 -0.32,-1.14 2.11,2.11 0 0 1 0.32,-1.15 2.17,2.17 0 0 1 0.88,-0.79 2.64,2.64 0 0 1 1.27,-0.29 2.62,2.62 0 0 1 1.27,0.29 2.17,2.17 0 0 1 0.88,0.79 2.21,2.21 0 0 1 0.33,1.15 2,2 0 0 1 -0.33,1.14 2.27,2.27 0 0 1 -0.88,0.8 2.73,2.73 0 0 1 -1.27,0.28 z m 0,-0.56 a 2,2 0 0 0 0.93,-0.21 1.67,1.67 0 0 0 0.64,-2.31 1.68,1.68 0 0 0 -0.64,-0.6 2.14,2.14 0 0 0 -1.85,0 1.71,1.71 0 0 0 -0.65,0.6 1.72,1.72 0 0 0 0,1.72 1.69,1.69 0 0 0 0.65,0.59 2,2 0 0 0 0.92,0.21 z" transform="translate(-1.03)" id="path12" />
      <path class="cls-3" d="m 31.62,116.88 a 0.33,0.33 0 0 1 -0.44,-0.14 l -2,-3.69 a 0.27,0.27 0 0 1 0,-0.23 0.32,0.32 0 0 1 0.18,-0.16 0.37,0.37 0 0 1 0.25,0 0.33,0.33 0 0 1 0.17,0.16 l 1.95,3.69 a 0.29,0.29 0 0 1 0.05,0.23 0.25,0.25 0 0 1 -0.16,0.14 z m -1,2 h -0.16 c -0.2,-0.08 -0.26,-0.21 -0.17,-0.39 l 2.88,-5.69 a 0.3,0.3 0 0 1 0.42,-0.15 c 0.21,0.08 0.26,0.2 0.17,0.38 l -2.88,5.69 a 0.28,0.28 0 0 1 -0.25,0.2 z" transform="translate(-1.03)" id="path13" />
      <path class="cls-3" d="m 36.82,117.05 a 2.48,2.48 0 0 1 -1.23,-0.29 2.26,2.26 0 0 1 -0.86,-0.79 2.13,2.13 0 0 1 -0.32,-1.14 2,2 0 0 1 0.33,-1.14 2.26,2.26 0 0 1 0.88,-0.8 2.79,2.79 0 0 1 1.27,-0.29 2.72,2.72 0 0 1 1.26,0.29 2.26,2.26 0 0 1 0.88,0.8 2,2 0 0 1 0.33,1.14 l -0.27,0.19 a 1.86,1.86 0 0 1 -0.3,1 2.2,2.2 0 0 1 -0.81,0.73 2.45,2.45 0 0 1 -1.16,0.3 z m 0.07,-0.56 a 2,2 0 0 0 0.92,-0.21 1.68,1.68 0 0 0 0.64,-0.6 1.53,1.53 0 0 0 0.24,-0.85 1.59,1.59 0 0 0 -0.24,-0.86 1.73,1.73 0 0 0 -0.64,-0.59 2,2 0 0 0 -1.84,0 1.76,1.76 0 0 0 -0.65,0.59 1.59,1.59 0 0 0 -0.24,0.86 1.53,1.53 0 0 0 0.24,0.85 1.71,1.71 0 0 0 0.65,0.6 2,2 0 0 0 0.92,0.21 z M 39,117 a 0.34,0.34 0 0 1 -0.25,-0.08 0.27,0.27 0 0 1 -0.1,-0.22 v -1.37 l 0.17,-0.63 0.52,0.12 v 1.88 A 0.29,0.29 0 0 1 39.25,116.92 0.36,0.36 0 0 1 39,117 Z" transform="translate(-1.03)" id="path14" />
      <path class="cls-3" d="m 41.75,117 a 1.16,1.16 0 0 1 -0.64,-0.17 1.21,1.21 0 0 1 -0.43,-0.49 1.53,1.53 0 0 1 -0.16,-0.72 v -4.56 a 0.29,0.29 0 0 1 0.09,-0.22 0.36,0.36 0 0 1 0.25,-0.08 0.32,0.32 0 0 1 0.24,0.08 0.27,0.27 0 0 1 0.1,0.22 v 4.56 a 1,1 0 0 0 0.15,0.56 0.5,0.5 0 0 0 0.4,0.22 H 42 a 0.29,0.29 0 0 1 0.22,0.08 0.33,0.33 0 0 1 0.08,0.22 0.26,0.26 0 0 1 -0.12,0.22 0.43,0.43 0 0 1 -0.29,0.08 z" transform="translate(-1.03)" id="path15" />
      <path class="cls-3" d="m 42.9,113.33 a 0.35,0.35 0 0 1 -0.23,-0.07 0.26,0.26 0 0 1 -0.08,-0.19 0.3,0.3 0 0 1 0.08,-0.2 0.35,0.35 0 0 1 0.23,-0.07 h 2.27 a 0.32,0.32 0 0 1 0.22,0.07 0.27,0.27 0 0 1 0.09,0.2 0.23,0.23 0 0 1 -0.09,0.19 0.32,0.32 0 0 1 -0.22,0.07 z m 2.21,3.67 a 1.68,1.68 0 0 1 -0.84,-0.2 1.51,1.51 0 0 1 -0.58,-0.54 1.54,1.54 0 0 1 -0.21,-0.8 v -3.91 a 0.32,0.32 0 0 1 0.09,-0.23 0.36,0.36 0 0 1 0.24,-0.08 0.37,0.37 0 0 1 0.25,0.08 0.29,0.29 0 0 1 0.1,0.23 v 3.91 a 0.89,0.89 0 0 0 0.27,0.67 0.94,0.94 0 0 0 0.68,0.26 h 0.24 a 0.32,0.32 0 0 1 0.24,0.09 0.27,0.27 0 0 1 0.08,0.22 0.27,0.27 0 0 1 -0.1,0.22 0.4,0.4 0 0 1 -0.27,0.08 z" transform="translate(-1.03)" id="path16" />
      <path class="cls-3" d="m 48.61,116.88 a 0.37,0.37 0 0 1 -0.25,0 0.35,0.35 0 0 1 -0.18,-0.16 l -2,-3.69 a 0.27,0.27 0 0 1 0,-0.23 0.32,0.32 0 0 1 0.18,-0.16 0.37,0.37 0 0 1 0.25,0 0.31,0.31 0 0 1 0.18,0.16 l 1.95,3.69 a 0.28,0.28 0 0 1 0,0.23 0.25,0.25 0 0 1 -0.13,0.16 z m -1,2 h -0.16 a 0.26,0.26 0 0 1 -0.17,-0.39 l 2.88,-5.69 a 0.31,0.31 0 0 1 0.43,-0.15 c 0.2,0.08 0.26,0.2 0.17,0.38 l -2.89,5.69 a 0.27,0.27 0 0 1 -0.25,0.2 z" transform="translate(-1.03)" id="path17" />
      <path class="cls-3" d="m 55.75,117.07 a 2.38,2.38 0 0 1 -1,-0.19 1.6,1.6 0 0 1 -0.65,-0.52 1.38,1.38 0 0 1 -0.23,-0.78 1.48,1.48 0 0 1 0.36,-1 5.65,5.65 0 0 1 1.08,-0.94 l 0.74,-0.52 a 2.23,2.23 0 0 0 0.58,-0.56 1,1 0 0 0 0.19,-0.59 0.75,0.75 0 0 0 -0.25,-0.57 1,1 0 0 0 -0.7,-0.24 1,1 0 0 0 -0.67,0.22 0.72,0.72 0 0 0 -0.26,0.54 1.07,1.07 0 0 0 0.11,0.46 1.62,1.62 0 0 0 0.35,0.42 l 4,3.58 a 0.4,0.4 0 0 1 0.13,0.19 0.22,0.22 0 0 1 -0.09,0.19 0.3,0.3 0 0 1 -0.46,0 l -4,-3.63 a 2.13,2.13 0 0 1 -0.45,-0.56 1.36,1.36 0 0 1 -0.16,-0.65 1.14,1.14 0 0 1 0.2,-0.65 1.42,1.42 0 0 1 0.56,-0.46 1.92,1.92 0 0 1 1.6,0 1.46,1.46 0 0 1 0.56,0.48 1.14,1.14 0 0 1 0.2,0.68 1.32,1.32 0 0 1 -0.13,0.56 1.9,1.9 0 0 1 -0.37,0.5 4.94,4.94 0 0 1 -0.58,0.48 l -0.74,0.51 a 3.84,3.84 0 0 0 -0.62,0.52 1.85,1.85 0 0 0 -0.36,0.49 1.24,1.24 0 0 0 -0.11,0.49 0.85,0.85 0 0 0 0.32,0.69 1.4,1.4 0 0 0 0.92,0.26 1.67,1.67 0 0 0 0.83,-0.2 3.89,3.89 0 0 0 0.78,-0.6 l 1.35,-1.28 a 0.42,0.42 0 0 1 0.21,-0.12 0.25,0.25 0 0 1 0.21,0.08 0.31,0.31 0 0 1 0.12,0.19 0.27,0.27 0 0 1 -0.11,0.21 l -1.35,1.28 a 3.89,3.89 0 0 1 -1,0.72 2.35,2.35 0 0 1 -1.11,0.32 z" transform="translate(-1.03)" id="path18" />
      <path class="cls-3" d="m 63.73,117 a 0.34,0.34 0 0 1 -0.25,-0.08 0.29,0.29 0 0 1 -0.1,-0.23 v -5.62 a 0.29,0.29 0 0 1 0.1,-0.23 0.39,0.39 0 0 1 0.25,-0.08 h 1.66 a 2.67,2.67 0 0 1 1.16,0.24 2,2 0 0 1 0.8,0.68 1.8,1.8 0 0 1 0.29,1 1.68,1.68 0 0 1 -0.29,1 2,2 0 0 1 -0.8,0.67 2.67,2.67 0 0 1 -1.16,0.24 h -1.31 v 2.13 a 0.33,0.33 0 0 1 -0.1,0.23 0.36,0.36 0 0 1 -0.25,0.05 z m 0.35,-3 h 1.31 a 1.89,1.89 0 0 0 0.81,-0.17 1.37,1.37 0 0 0 0.55,-0.45 1.08,1.08 0 0 0 0.21,-0.66 1.17,1.17 0 0 0 -0.21,-0.69 1.41,1.41 0 0 0 -0.55,-0.47 1.89,1.89 0 0 0 -0.81,-0.16 h -1.31 z m 3.37,3 a 0.3,0.3 0 0 1 -0.18,0 0.23,0.23 0 0 1 -0.12,-0.12 l -1.71,-2.44 0.69,-0.16 1.6,2.28 a 0.31,0.31 0 0 1 0,0.34 c -0.01,0.1 -0.12,0.1 -0.28,0.1 z" transform="translate(-1.03)" id="path19" />
      <path class="cls-3" d="m 71,117.05 a 2.77,2.77 0 0 1 -1.28,-0.28 2.15,2.15 0 0 1 -0.87,-0.79 2.11,2.11 0 0 1 -0.31,-1.15 2.22,2.22 0 0 1 0.29,-1.16 2.15,2.15 0 0 1 0.83,-0.78 2.38,2.38 0 0 1 1.21,-0.29 2.48,2.48 0 0 1 1.18,0.27 2.06,2.06 0 0 1 0.78,0.77 2.23,2.23 0 0 1 0.27,1.11 0.24,0.24 0 0 1 -0.09,0.2 0.3,0.3 0 0 1 -0.23,0.08 H 69 v -0.51 h 3.85 l -0.38,0.25 a 1.68,1.68 0 0 0 -0.19,-0.84 1.44,1.44 0 0 0 -0.55,-0.57 1.69,1.69 0 0 0 -0.86,-0.21 1.7,1.7 0 0 0 -0.89,0.22 1.4,1.4 0 0 0 -0.59,0.59 1.81,1.81 0 0 0 -0.21,0.87 1.54,1.54 0 0 0 0.23,0.86 1.64,1.64 0 0 0 0.65,0.6 2,2 0 0 0 0.94,0.21 2.14,2.14 0 0 0 0.65,-0.1 1.57,1.57 0 0 0 0.52,-0.25 0.42,0.42 0 0 1 0.22,-0.08 0.37,0.37 0 0 1 0.21,0.06 0.29,0.29 0 0 1 0.12,0.21 0.2,0.2 0 0 1 -0.1,0.19 2.39,2.39 0 0 1 -0.75,0.38 2.72,2.72 0 0 1 -0.87,0.14 z" transform="translate(-1.03)" id="path20" />
      <path class="cls-3" d="m 75.36,117 a 0.35,0.35 0 0 1 -0.2,-0.05 0.37,0.37 0 0 1 -0.13,-0.15 l -1.38,-3.74 a 0.44,0.44 0 0 1 0,-0.32 0.28,0.28 0 0 1 0.25,-0.11 0.46,0.46 0 0 1 0.21,0 0.35,0.35 0 0 1 0.13,0.18 l 1.24,3.4 h -0.2 l 1.15,-3.39 a 0.43,0.43 0 0 1 0.12,-0.17 0.32,0.32 0 0 1 0.22,-0.07 0.38,0.38 0 0 1 0.22,0.06 0.41,0.41 0 0 1 0.12,0.18 l 1.09,3.31 h -0.15 l 1.21,-3.32 a 0.33,0.33 0 0 1 0.33,-0.23 0.28,0.28 0 0 1 0.27,0.13 0.32,0.32 0 0 1 0,0.3 l -1.39,3.74 a 0.29,0.29 0 0 1 -0.12,0.15 0.33,0.33 0 0 1 -0.2,0.05 0.36,0.36 0 0 1 -0.21,-0.05 0.29,0.29 0 0 1 -0.12,-0.15 l -1.12,-3.34 h 0.11 l -1.13,3.34 a 0.23,0.23 0 0 1 -0.12,0.15 0.35,0.35 0 0 1 -0.2,0.1 z" transform="translate(-1.03)" id="path21" />
      <path class="cls-3" d="m 83,117.05 a 2.54,2.54 0 0 1 -1.23,-0.29 2.33,2.33 0 0 1 -0.86,-0.79 2.12,2.12 0 0 1 -0.31,-1.14 2.08,2.08 0 0 1 0.32,-1.14 2.29,2.29 0 0 1 0.89,-0.8 2.88,2.88 0 0 1 2.52,0 2.2,2.2 0 0 1 0.88,0.8 2.09,2.09 0 0 1 0.34,1.14 l -0.28,0.19 a 1.86,1.86 0 0 1 -0.3,1 2.05,2.05 0 0 1 -0.81,0.73 2.42,2.42 0 0 1 -1.16,0.3 z m 0.07,-0.56 a 2,2 0 0 0 0.93,-0.21 1.68,1.68 0 0 0 0.64,-0.6 1.61,1.61 0 0 0 0.23,-0.85 1.68,1.68 0 0 0 -0.23,-0.86 1.73,1.73 0 0 0 -0.64,-0.59 1.91,1.91 0 0 0 -0.93,-0.22 1.86,1.86 0 0 0 -0.91,0.22 1.69,1.69 0 0 0 -0.65,0.59 1.59,1.59 0 0 0 -0.24,0.86 1.53,1.53 0 0 0 0.24,0.85 1.64,1.64 0 0 0 0.65,0.6 2,2 0 0 0 0.9,0.21 z m 2.13,0.52 a 0.36,0.36 0 0 1 -0.25,-0.08 0.3,0.3 0 0 1 -0.1,-0.22 v -1.37 l 0.17,-0.63 0.53,0.12 v 1.88 a 0.27,0.27 0 0 1 -0.1,0.22 0.34,0.34 0 0 1 -0.26,0.07 z" transform="translate(-1.03)" id="path22" />
      <path class="cls-3" d="m 87.21,117 a 0.34,0.34 0 0 1 -0.25,-0.08 0.27,0.27 0 0 1 -0.09,-0.22 v -3.77 a 0.28,0.28 0 0 1 0.09,-0.22 0.34,0.34 0 0 1 0.25,-0.08 0.33,0.33 0 0 1 0.25,0.08 0.28,0.28 0 0 1 0.09,0.22 v 3.77 a 0.27,0.27 0 0 1 -0.09,0.22 0.33,0.33 0 0 1 -0.25,0.08 z m 0,-2.69 a 1.71,1.71 0 0 1 0.29,-0.89 1.85,1.85 0 0 1 0.68,-0.62 2,2 0 0 1 0.94,-0.22 1.56,1.56 0 0 1 0.64,0.1 0.25,0.25 0 0 1 0.16,0.31 0.23,0.23 0 0 1 -0.12,0.16 0.32,0.32 0 0 1 -0.2,0 h -0.27 a 2.3,2.3 0 0 0 -0.89,0.1 1.26,1.26 0 0 0 -0.61,0.4 1,1 0 0 0 -0.23,0.65 z" transform="translate(-1.03)" id="path23" />
      <path class="cls-3" d="M 93.17,117.05 A 2.67,2.67 0 0 1 91.9,116.76 2.25,2.25 0 0 1 91,116 a 2.16,2.16 0 0 1 0,-2.28 2.21,2.21 0 0 1 0.86,-0.8 2.6,2.6 0 0 1 1.23,-0.29 2.36,2.36 0 0 1 1.07,0.23 2.14,2.14 0 0 1 0.78,0.6 v -2.35 a 0.28,0.28 0 0 1 0.1,-0.23 0.33,0.33 0 0 1 0.25,-0.08 0.32,0.32 0 0 1 0.24,0.08 0.28,0.28 0 0 1 0.1,0.23 v 3.77 a 2.09,2.09 0 0 1 -0.33,1.12 2.4,2.4 0 0 1 -0.88,0.79 2.7,2.7 0 0 1 -1.25,0.26 z m 0,-0.56 a 1.87,1.87 0 0 0 0.92,-0.22 1.65,1.65 0 0 0 0.64,-0.59 1.64,1.64 0 0 0 0,-1.71 1.76,1.76 0 0 0 -0.64,-0.6 2.12,2.12 0 0 0 -1.84,0 1.79,1.79 0 0 0 -0.65,0.6 1.64,1.64 0 0 0 0,1.71 1.68,1.68 0 0 0 0.65,0.59 1.87,1.87 0 0 0 0.92,0.22 z" transform="translate(-1.03)" id="path24" />
      <path class="cls-3" d="m 98.94,117.05 a 3.41,3.41 0 0 1 -1,-0.16 1.84,1.84 0 0 1 -0.83,-0.48 0.2,0.2 0 0 1 -0.08,-0.21 0.3,0.3 0 0 1 0.13,-0.21 0.4,0.4 0 0 1 0.26,-0.06 0.35,0.35 0 0 1 0.22,0.1 1.34,1.34 0 0 0 0.57,0.34 2.35,2.35 0 0 0 0.77,0.12 1.72,1.72 0 0 0 1,-0.2 0.64,0.64 0 0 0 0.3,-0.49 0.57,0.57 0 0 0 -0.3,-0.48 2.94,2.94 0 0 0 -1,-0.29 2.74,2.74 0 0 1 -1.32,-0.45 0.92,0.92 0 0 1 -0.42,-0.76 1,1 0 0 1 0.24,-0.68 1.48,1.48 0 0 1 0.65,-0.41 3,3 0 0 1 1.91,0 1.89,1.89 0 0 1 0.69,0.5 0.27,0.27 0 0 1 0.08,0.21 0.28,0.28 0 0 1 -0.15,0.19 0.33,0.33 0 0 1 -0.24,0 0.44,0.44 0 0 1 -0.24,-0.11 1.31,1.31 0 0 0 -0.51,-0.34 2.06,2.06 0 0 0 -0.68,-0.11 1.45,1.45 0 0 0 -0.78,0.18 0.52,0.52 0 0 0 -0.3,0.45 0.5,0.5 0 0 0 0.11,0.32 1,1 0 0 0 0.39,0.24 3.7,3.7 0 0 0 0.76,0.18 3.75,3.75 0 0 1 1,0.28 1.33,1.33 0 0 1 0.55,0.44 1,1 0 0 1 0.17,0.55 1,1 0 0 1 -0.25,0.66 1.48,1.48 0 0 1 -0.67,0.44 2.8,2.8 0 0 1 -1.03,0.24 z" transform="translate(-1.03)" id="path25" />
      <g id="color_index_g" data-name="color index g" transform="matrix(0.22197074,0,0,0.22197074,-26.572943,89.320388)">
        <path class="cls-4" d="m 61.57,47 33.86,33.9 -3.35,3.35 C 83.92,74.81 73.16,69.61 61.69,69.61 c -11.47,0 -22.22,5.17 -30.38,14.62 l -3.38,-3.38 0.41,-0.46 a 54,54 0 0 0 4.79,-4.9 z M 19.91,12.18 c 9.45,8.19 14.63,19 14.63,30.39 v 0 c 0,11.46 -5.18,22.2 -14.63,30.36 l 3.36,3.35 5.29,-5.28 h 0.05 L 57.15,42.45 28.66,14 A 47,47 0 0 1 23.78,9.21 c -0.05,0 -0.05,0 -0.05,-0.05 L 23.29,8.8 Z m 42.43,2.49 C 50.87,14.67 40.11,9.47 32,0 l -3.4,3.38 5.2,5.17 c 0,0 0.05,0 0.1,0.1 L 62.46,37.24 90.93,8.77 a 49.64,49.64 0 0 1 4.76,-4.86 v 0 L 95.74,3.86 96.13,3.4 92.77,0 C 84.56,9.47 73.8,14.67 62.34,14.67 Z m 4.59,27.13 28.44,28.47 a 52.84,52.84 0 0 1 4.91,4.79 l 0.46,0.41 3.38,-3.38 C 94.67,63.91 89.5,53.17 89.5,41.71 v 0 c 0,-11.46 5.17,-22.2 14.64,-30.36 L 100.79,8 Z" transform="translate(-1.03)" id="path26" />
      </g>
    </g>
  </g>
</svg>
